<svg width="28" height="28" viewBox="0 0 28 28" fill="none" xmlns="http://www.w3.org/2000/svg">
<path d="M23.9641 19.3484C23.2969 18.2109 22.5094 16.0562 22.5094 12.25V11.4734C22.5094 6.74844 18.725 2.87656 14.0656 2.84375H14C12.8807 2.84375 11.7724 3.06457 10.7386 3.49357C9.70473 3.92258 8.76569 4.55133 7.97524 5.34382C7.18478 6.1363 6.55844 7.07695 6.13209 8.11189C5.70575 9.14682 5.48777 10.2557 5.49065 11.375V12.25C5.49065 16.0562 4.70315 18.2109 4.03596 19.3484C3.89952 19.5825 3.82764 19.8486 3.82764 20.1195C3.82764 20.3905 3.89952 20.6565 4.03596 20.8906C4.16751 21.1253 4.35981 21.3202 4.59268 21.4549C4.82555 21.5896 5.09039 21.6592 5.3594 21.6562H9.84377V21.875C9.84377 22.9773 10.2817 24.0345 11.0611 24.8139C11.8406 25.5934 12.8977 26.0312 14 26.0312C15.1023 26.0312 16.1595 25.5934 16.9389 24.8139C17.7184 24.0345 18.1563 22.9773 18.1563 21.875V21.6562H22.6406C22.9097 21.6592 23.1745 21.5896 23.4074 21.4549C23.6402 21.3202 23.8325 21.1253 23.9641 20.8906C24.1005 20.6565 24.1724 20.3905 24.1724 20.1195C24.1724 19.8486 24.1005 19.5825 23.9641 19.3484ZM16.8438 21.875C16.8438 22.6292 16.5442 23.3525 16.0109 23.8858C15.4775 24.4191 14.7542 24.7188 14 24.7188C13.2458 24.7188 12.5225 24.4191 11.9892 23.8858C11.4559 23.3525 11.1563 22.6292 11.1563 21.875V21.6562H16.8438V21.875ZM22.8266 20.2344C22.8096 20.2687 22.783 20.2974 22.7499 20.3168C22.7169 20.3362 22.6789 20.3456 22.6406 20.3438H5.3594C5.32112 20.3456 5.28314 20.3362 5.25011 20.3168C5.21708 20.2974 5.19044 20.2687 5.17346 20.2344C5.15426 20.2011 5.14415 20.1634 5.14415 20.125C5.14415 20.0866 5.15426 20.0489 5.17346 20.0156C5.91721 18.725 6.80315 16.3406 6.80315 12.25V11.375C6.80171 10.4285 6.98672 9.4909 7.34762 8.61586C7.70852 7.74081 8.23824 6.94542 8.90653 6.2751C9.57482 5.60478 10.3686 5.07265 11.2425 4.7091C12.1165 4.34554 13.0535 4.15769 14 4.15625H14.0547C17.9922 4.17813 21.1969 7.47031 21.1969 11.4734V12.25C21.1969 16.3406 22.0828 18.725 22.8266 20.0156C22.8458 20.0489 22.8559 20.0866 22.8559 20.125C22.8559 20.1634 22.8458 20.2011 22.8266 20.2344Z" fill="#64AEFF"/>
</svg>
