<svg width="28" height="28" viewBox="0 0 28 28" fill="none" xmlns="http://www.w3.org/2000/svg">
<path d="M14 24.2812C13.8886 24.2795 13.7794 24.2494 13.6828 24.1937C13.5625 24.1391 10.85 22.5969 8.09375 20.125C4.32031 16.7234 2.40625 13.3437 2.40625 10.0625C2.40526 8.70491 2.83981 7.38282 3.64603 6.29055C4.45224 5.19829 5.58759 4.39347 6.8852 3.99439C8.1828 3.59532 9.5742 3.62304 10.8549 4.07349C12.1355 4.52394 13.2379 5.37335 14 6.49687C14.7621 5.37335 15.8645 4.52394 17.1451 4.07349C18.4258 3.62304 19.8172 3.59532 21.1148 3.99439C22.4124 4.39347 23.5478 5.19829 24.354 6.29055C25.1602 7.38282 25.5947 8.70491 25.5938 10.0625C25.5938 13.3437 23.6797 16.7234 19.9062 20.125C17.15 22.5969 14.4375 24.1391 14.3172 24.1937C14.2206 24.2494 14.1114 24.2795 14 24.2812ZM8.75 5.03125C7.41563 5.03125 6.13591 5.56132 5.19237 6.50487C4.24883 7.44841 3.71875 8.72813 3.71875 10.0625C3.71875 16.3297 12.2281 21.7984 14 22.8594C15.7719 21.7984 24.2812 16.3297 24.2812 10.0625C24.2838 8.89751 23.882 7.76774 23.1444 6.866C22.4068 5.96425 21.3791 5.34643 20.2367 5.11795C19.0944 4.88948 17.9081 5.06452 16.8804 5.6132C15.8527 6.16189 15.0473 7.05021 14.6016 8.12656C14.5545 8.24783 14.4718 8.35204 14.3645 8.42552C14.2571 8.49899 14.1301 8.53831 14 8.53831C13.8699 8.53831 13.7429 8.49899 13.6355 8.42552C13.5282 8.35204 13.4455 8.24783 13.3984 8.12656C13.016 7.20917 12.3704 6.4256 11.5431 5.87473C10.7158 5.32385 9.74392 5.03035 8.75 5.03125Z" fill="#64AEFF"/>
</svg>
