<svg width="26" height="26" viewBox="0 0 26 26" fill="none" xmlns="http://www.w3.org/2000/svg">
<path d="M13 2.16675C7.01677 2.16675 2.16669 7.01683 2.16669 13.0001C2.16669 18.9833 7.01677 23.8334 13 23.8334C18.9833 23.8334 23.8334 18.9833 23.8334 13.0001C23.8334 7.01683 18.9833 2.16675 13 2.16675Z" stroke="#64AFFF" stroke-width="1.5" stroke-linecap="round" stroke-linejoin="round"/>
<path d="M4.62695 19.8748C4.62695 19.8748 7.0417 16.7917 13 16.7917C18.9584 16.7917 21.3742 19.8748 21.3742 19.8748M13 13C13.862 13 14.6886 12.6576 15.2981 12.0481C15.9076 11.4386 16.25 10.612 16.25 9.75C16.25 8.88805 15.9076 8.0614 15.2981 7.4519C14.6886 6.84241 13.862 6.5 13 6.5C12.1381 6.5 11.3114 6.84241 10.7019 7.4519C10.0924 8.0614 9.75004 8.88805 9.75004 9.75C9.75004 10.612 10.0924 11.4386 10.7019 12.0481C11.3114 12.6576 12.1381 13 13 13Z" stroke="#64AFFF" stroke-width="1.5" stroke-linecap="round" stroke-linejoin="round"/>
</svg>
