<svg width="28" height="28" viewBox="0 0 28 28" fill="none" xmlns="http://www.w3.org/2000/svg">
<path d="M2.86896 12.7568C3.0973 10.7131 3.88383 8.7717 5.14235 7.14537C6.40086 5.51904 8.08279 4.27055 10.0038 3.53671C11.9248 2.80286 14.0108 2.612 16.033 2.98504C18.0553 3.35808 19.9359 4.28061 21.4687 5.65155C23.0014 7.02248 24.1272 8.7889 24.7226 10.7572C25.3181 12.7255 25.3602 14.8198 24.8443 16.8104C24.3285 18.8011 23.2746 20.6113 21.7982 22.0428C20.3218 23.4742 18.4798 24.4716 16.4742 24.9256C16.7301 24.5224 16.841 24.0441 16.7886 23.5694C16.7362 23.0948 16.5235 22.6521 16.1858 22.3146L16.1718 22.3006C16.4226 21.9285 16.6427 21.5366 16.8298 21.1288C17.1585 20.4113 17.4209 19.6653 17.6138 18.9H13.642C13.7988 18.4548 13.908 17.9858 13.9626 17.5H17.9106C18.1056 16.3436 18.2026 15.1727 18.2004 14C18.2004 12.7638 18.0982 11.585 17.912 10.5H10.0888C10.0637 10.6467 10.0404 10.7937 10.0188 10.941C9.58093 10.7675 9.12491 10.6439 8.65936 10.5728L8.67056 10.5H4.84436C4.73961 10.7734 4.64712 11.0513 4.56716 11.333C3.92036 11.704 3.34496 12.187 2.86896 12.7568ZM16.8312 6.87118C15.9702 5.02598 14.9202 4.19998 14.0004 4.19998C13.0806 4.19998 12.0306 5.02598 11.1696 6.87118C10.8418 7.58877 10.5803 8.33481 10.3884 9.09998H17.6152C17.4223 8.3347 17.1599 7.58866 16.8312 6.87118ZM8.94496 9.09998C9.19136 8.05978 9.51476 7.10918 9.90116 6.27898C10.1616 5.72038 10.4626 5.19678 10.8 4.73478C8.57007 5.50779 6.69269 7.0572 5.51076 9.09998H8.94496ZM22.49 18.9H19.0544C18.8319 19.8703 18.5116 20.8154 18.0982 21.721C17.849 22.2635 17.548 22.7806 17.1994 23.2652C19.4292 22.4922 21.308 20.9428 22.49 18.9ZM19.3302 17.5H23.1564C23.5722 16.4136 23.8004 15.232 23.8004 14C23.8004 12.768 23.5722 11.5864 23.1564 10.5H19.3302C19.5066 11.6032 19.6004 12.782 19.6004 14C19.6004 15.218 19.5066 16.3968 19.3302 17.5ZM22.49 9.09998C21.3081 7.05712 19.4307 5.50768 17.2008 4.73478C17.5382 5.19678 17.8392 5.72038 18.0996 6.27898C18.486 7.10918 18.8094 8.05978 19.0558 9.09998H22.49ZM11.626 19.7344C12.3678 18.7423 12.7064 17.506 12.5735 16.2743C12.4406 15.0426 11.8461 13.907 10.9096 13.096C9.97315 12.285 8.76426 11.8587 7.52622 11.9031C6.28819 11.9475 5.11292 12.4592 4.23694 13.3352C3.36095 14.2111 2.84929 15.3864 2.80491 16.6244C2.76053 17.8625 3.18673 19.0714 3.99774 20.0078C4.80876 20.9443 5.94438 21.5388 7.17605 21.6717C8.40773 21.8046 9.64403 21.4661 10.6362 20.7242L14.2062 24.2942C14.3382 24.4217 14.515 24.4922 14.6985 24.4907C14.8821 24.4891 15.0576 24.4154 15.1874 24.2857C15.3172 24.1559 15.3908 23.9803 15.3924 23.7968C15.394 23.6132 15.3235 23.4364 15.196 23.3044L11.626 19.7344ZM11.2004 16.8C11.2004 17.7282 10.8316 18.6185 10.1752 19.2749C9.51885 19.9312 8.62861 20.3 7.70036 20.3C6.7721 20.3 5.88186 19.9312 5.22548 19.2749C4.56911 18.6185 4.20036 17.7282 4.20036 16.8C4.20036 15.8717 4.56911 14.9815 5.22548 14.3251C5.88186 13.6687 6.7721 13.3 7.70036 13.3C8.62861 13.3 9.51885 13.6687 10.1752 14.3251C10.8316 14.9815 11.2004 15.8717 11.2004 16.8Z" fill="#7E7E7E"/>
</svg>
