<svg width="33" height="33" viewBox="0 0 33 33" fill="none" xmlns="http://www.w3.org/2000/svg">
<path d="M10.3125 16.5011C10.3125 16.909 10.1915 17.3078 9.96491 17.647C9.73828 17.9861 9.41616 18.2505 9.03929 18.4066C8.66241 18.5627 8.24771 18.6036 7.84763 18.524C7.44754 18.4444 7.08004 18.248 6.79159 17.9595C6.50315 17.6711 6.30671 17.3036 6.22713 16.9035C6.14755 16.5034 6.18839 16.0887 6.3445 15.7118C6.50061 15.3349 6.76496 15.0128 7.10414 14.7862C7.44331 14.5596 7.84208 14.4386 8.25 14.4386C8.79701 14.4386 9.32161 14.6559 9.70841 15.0427C10.0952 15.4295 10.3125 15.9541 10.3125 16.5011ZM24.75 14.4386C24.3421 14.4386 23.9433 14.5596 23.6041 14.7862C23.265 15.0128 23.0006 15.3349 22.8445 15.7118C22.6884 16.0887 22.6476 16.5034 22.7271 16.9035C22.8067 17.3036 23.0031 17.6711 23.2916 17.9595C23.58 18.248 23.9475 18.4444 24.3476 18.524C24.7477 18.6036 25.1624 18.5627 25.5393 18.4066C25.9162 18.2505 26.2383 17.9861 26.4649 17.647C26.6915 17.3078 26.8125 16.909 26.8125 16.5011C26.8125 15.9541 26.5952 15.4295 26.2084 15.0427C25.8216 14.6559 25.297 14.4386 24.75 14.4386ZM16.5 14.4386C16.0921 14.4386 15.6933 14.5596 15.3541 14.7862C15.015 15.0128 14.7506 15.3349 14.5945 15.7118C14.4384 16.0887 14.3975 16.5034 14.4771 16.9035C14.5567 17.3036 14.7531 17.6711 15.0416 17.9595C15.33 18.248 15.6975 18.4444 16.0976 18.524C16.4977 18.6036 16.9124 18.5627 17.2893 18.4066C17.6662 18.2505 17.9883 17.9861 18.2149 17.647C18.4415 17.3078 18.5625 16.909 18.5625 16.5011C18.5625 15.9541 18.3452 15.4295 17.9584 15.0427C17.5716 14.6559 17.047 14.4386 16.5 14.4386Z" fill="#B9B9B9"/>
</svg>
