<svg width="19" height="17" viewBox="0 0 19 17" fill="none" xmlns="http://www.w3.org/2000/svg">
<g clip-path="url(#clip0_107_1367)">
<path d="M2.175 5.06457C2.3625 4.88749 2.5845 4.79895 2.841 4.79895C3.097 4.79895 3.31875 4.88749 3.50625 5.06457L9 10.2531L14.5125 5.04687C14.6875 4.88159 14.9062 4.79895 15.1687 4.79895C15.4312 4.79895 15.6562 4.88749 15.8437 5.06458C16.0312 5.24166 16.125 5.45133 16.125 5.69358C16.125 5.93535 16.0312 6.14478 15.8437 6.32187L9.525 12.2719C9.45 12.3427 9.36875 12.393 9.28125 12.4227C9.19375 12.452 9.1 12.4667 9 12.4667C8.9 12.4667 8.80625 12.452 8.71875 12.4227C8.63125 12.393 8.55 12.3427 8.475 12.2719L2.15625 6.30416C1.98125 6.13888 1.89375 5.93535 1.89375 5.69357C1.89375 5.45132 1.9875 5.24166 2.175 5.06457Z" fill="#707070"/>
</g>
<defs>
<clipPath id="clip0_107_1367">
<rect width="17" height="18.0167" fill="white" transform="translate(18.9277) rotate(90)"/>
</clipPath>
</defs>
</svg>
