<svg width="28" height="28" viewBox="0 0 28 28" fill="none" xmlns="http://www.w3.org/2000/svg">
<path d="M28 21C28 21.8251 27.6722 22.6165 27.0888 23.1999C26.5053 23.7834 25.714 24.1111 24.8889 24.1111H3.11111C2.28599 24.1111 1.49467 23.7834 0.911223 23.1999C0.327777 22.6165 0 21.8251 0 21V7.00003C0 6.17491 0.327777 5.38359 0.911223 4.80014C1.49467 4.21669 2.28599 3.88892 3.11111 3.88892H24.8889C25.714 3.88892 26.5053 4.21669 27.0888 4.80014C27.6722 5.38359 28 6.17491 28 7.00003V21Z" fill="#009B3A"/>
<path d="M25.4551 13.9999L14 22.6519L2.54492 13.9999L14 5.34717L25.4551 13.9999Z" fill="#FEDF01"/>
<path d="M13.9814 18.9637C16.7555 18.9637 19.0043 16.7149 19.0043 13.9409C19.0043 11.1668 16.7555 8.91797 13.9814 8.91797C11.2073 8.91797 8.9585 11.1668 8.9585 13.9409C8.9585 16.7149 11.2073 18.9637 13.9814 18.9637Z" fill="#002776"/>
<path d="M9.54879 11.5788C9.28791 12.0704 9.11125 12.6023 9.02612 13.1523C12.1333 12.9267 16.3505 14.623 18.1603 16.7261C18.473 16.2564 18.7048 15.7306 18.8471 15.1675C16.6133 12.9835 12.6895 11.5664 9.54879 11.5788Z" fill="#CBE9D4"/>
<path d="M9.33337 14.1813H10.1112V14.9591H9.33337V14.1813ZM10.1112 15.7368H10.8889V16.5146H10.1112V15.7368Z" fill="#88C9F9"/>
<path d="M11.6666 14.1812H12.4444V14.9589H11.6666V14.1812ZM13.2222 14.9589H14V15.7367H13.2222V14.9589ZM16.3333 16.5145H17.1111V17.2923H16.3333V16.5145ZM14 17.2923H14.7777V18.0701H14V17.2923ZM16.3333 12.6256H17.1111V13.4034H16.3333V12.6256Z" fill="#55ACEE"/>
<path d="M14.7778 15.7368H15.5556V16.5146H14.7778V15.7368Z" fill="#3B88C3"/>
</svg>
