<svg width="29" height="29" viewBox="0 0 29 29" fill="none" xmlns="http://www.w3.org/2000/svg">
<g clip-path="url(#clip0_107_916)">
<path d="M25.7778 4.02783H3.22222C2.36764 4.02783 1.54805 4.36732 0.943767 4.9716C0.339483 5.57588 0 6.39547 0 7.25005L0 14.5001H29V7.25005C29 6.39547 28.6605 5.57588 28.0562 4.9716C27.452 4.36732 26.6324 4.02783 25.7778 4.02783Z" fill="#FBD116"/>
<path d="M0 14.5H29V20.1389H0V14.5Z" fill="#22408C"/>
<path d="M0 21.75C0 22.6046 0.339483 23.4242 0.943767 24.0285C1.54805 24.6328 2.36764 24.9722 3.22222 24.9722H25.7778C26.6324 24.9722 27.452 24.6328 28.0562 24.0285C28.6605 23.4242 29 22.6046 29 21.75V20.1389H0V21.75Z" fill="#CE2028"/>
</g>
<defs>
<clipPath id="clip0_107_916">
<rect width="29" height="29" fill="white"/>
</clipPath>
</defs>
</svg>
