<svg width="29" height="29" viewBox="0 0 29 29" fill="none" xmlns="http://www.w3.org/2000/svg">
<g clip-path="url(#clip0_107_904)">
<path d="M3.22222 4.02783C2.36764 4.02783 1.54805 4.36732 0.943767 4.9716C0.339483 5.57588 0 6.39547 0 7.25005L0 21.7501C0 22.6046 0.339483 23.4242 0.943767 24.0285C1.54805 24.6328 2.36764 24.9723 3.22222 24.9723H8.86111V4.02783H3.22222Z" fill="#006847"/>
<path d="M25.7778 4.02783H20.1389V24.9723H25.7778C26.6324 24.9723 27.452 24.6328 28.0563 24.0285C28.6605 23.4242 29 22.6046 29 21.7501V7.25005C29 6.39547 28.6605 5.57588 28.0563 4.9716C27.452 4.36732 26.6324 4.02783 25.7778 4.02783Z" fill="#CE1126"/>
<path d="M8.86108 4.02783H20.1389V24.9723H8.86108V4.02783Z" fill="#EEEEEE"/>
<path d="M18.5277 14.5C18.5277 15.5682 18.1034 16.5927 17.348 17.3481C16.5927 18.1034 15.5682 18.5278 14.5 18.5278C13.4317 18.5278 12.4072 18.1034 11.6519 17.3481C10.8965 16.5927 10.4722 15.5682 10.4722 14.5H9.66663C9.66663 15.7819 10.1759 17.0113 11.0823 17.9177C11.9887 18.8241 13.2181 19.3333 14.5 19.3333C15.7818 19.3333 17.0112 18.8241 17.9176 17.9177C18.8241 17.0113 19.3333 15.7819 19.3333 14.5H18.5277Z" fill="#A6D388"/>
<path d="M10.9096 16.3279C10.8857 16.2806 10.8527 16.2385 10.8124 16.204C10.7722 16.1695 10.7255 16.1434 10.6751 16.1271C10.6247 16.1107 10.5716 16.1045 10.5188 16.1089C10.466 16.1132 10.4145 16.1279 10.3674 16.1522C10.3202 16.1762 10.2782 16.2093 10.2438 16.2495C10.2094 16.2897 10.1832 16.3364 10.1668 16.3867C10.1504 16.4371 10.1441 16.4902 10.1483 16.543C10.1524 16.5958 10.167 16.6472 10.191 16.6944C10.2635 16.837 10.3433 16.9763 10.4295 17.11L10.4327 17.1157L10.4391 17.1254L10.4416 17.131L10.4424 17.1326L10.4456 17.1366L10.448 17.1415V17.1431L10.4504 17.1471L10.4512 17.1487L10.4536 17.1527L10.4544 17.1544L10.4569 17.1576L10.4585 17.16L10.4601 17.1624L10.4609 17.1648L10.4633 17.1689L10.4641 17.1697L10.4657 17.1721L10.4681 17.1769L10.4689 17.1785L10.4714 17.1826L10.4722 17.1842L10.4778 17.1922V17.193L10.4818 17.1987C10.5237 17.2607 10.5664 17.3211 10.6115 17.3815C10.643 17.4238 10.6825 17.4595 10.7278 17.4865C10.773 17.5135 10.8232 17.5313 10.8754 17.5388C10.9275 17.5464 10.9807 17.5436 11.0318 17.5305C11.0828 17.5175 11.1308 17.4945 11.173 17.4629C11.2155 17.4314 11.2513 17.3918 11.2785 17.3465C11.3056 17.3011 11.3236 17.2509 11.3313 17.1986C11.339 17.1463 11.3363 17.0929 11.3234 17.0417C11.3105 16.9904 11.2876 16.9422 11.256 16.8998C11.1274 16.7174 11.0116 16.5263 10.9096 16.3279ZM10.5092 15.0535C10.4792 14.8311 10.4668 14.6067 10.4722 14.3824C10.4752 14.2757 10.4358 14.1722 10.3625 14.0946C10.2892 14.0169 10.1882 13.9715 10.0815 13.9684L10.0525 13.9692C9.95081 13.9736 9.85459 14.0164 9.78315 14.0889C9.71172 14.1613 9.67037 14.2582 9.66742 14.3599C9.66554 14.4434 9.66527 14.5269 9.66661 14.6104V14.6829L9.66742 14.6869V14.7095L9.66822 14.7119L9.66742 14.7135V14.7159L9.66822 14.7176V14.7409L9.66903 14.7433V14.7522L9.66983 14.7675L9.67064 14.7747V14.7836C9.67789 14.9125 9.69078 15.0406 9.70769 15.1679C9.72268 15.2731 9.77869 15.3682 9.8635 15.4323C9.94831 15.4965 10.055 15.5245 10.1604 15.5102C10.2134 15.5033 10.2644 15.4859 10.3107 15.4592C10.3569 15.4324 10.3974 15.3968 10.4298 15.3544C10.4622 15.3119 10.4859 15.2635 10.4996 15.2119C10.5132 15.1602 10.5165 15.1064 10.5092 15.0535ZM14.7738 18.5174L14.769 18.5182L14.6691 18.5246C14.4783 18.5323 14.2872 18.5266 14.0972 18.5077C13.9909 18.497 13.8847 18.529 13.802 18.5966C13.7193 18.6642 13.6668 18.7619 13.6561 18.8682C13.6454 18.9745 13.6774 19.0806 13.745 19.1634C13.8126 19.2461 13.9103 19.2985 14.0166 19.3092L14.1173 19.3181L14.1205 19.3189L14.1221 19.3181L14.1246 19.3189H14.1262L14.131 19.3197H14.1358L14.1382 19.3205L14.1439 19.3197L14.1463 19.3205H14.1503L14.1552 19.3213L14.1592 19.3221H14.1697L14.1745 19.3229H14.185C14.3074 19.331 14.4307 19.335 14.5547 19.3326H14.5861L14.5918 19.3318L14.5966 19.3326H14.6087L14.6127 19.3318H14.628L14.6329 19.331L14.6377 19.3318L14.6385 19.331L14.6433 19.3318H14.6441L14.6482 19.331H14.6546L14.6594 19.3302H14.6643L14.6651 19.331L14.6699 19.3302H14.6756L14.6796 19.3294H14.6957L14.6997 19.3285H14.7029L14.7062 19.3277L14.7094 19.3285H14.7134L14.7166 19.3277H14.7207C14.7545 19.3269 14.7891 19.3237 14.823 19.3221C14.9273 19.3137 15.0241 19.2645 15.0924 19.1851C15.1607 19.1058 15.195 19.0028 15.1879 18.8984C15.1858 18.8461 15.1735 18.7948 15.1515 18.7474C15.1296 18.6999 15.0985 18.6573 15.06 18.6219C15.0215 18.5865 14.9764 18.559 14.9273 18.5411C14.8782 18.5232 14.8261 18.5151 14.7738 18.5174ZM12.8091 18.1565C12.6059 18.0623 12.4109 17.9515 12.2259 17.8254C12.1543 17.776 12.0686 17.7514 11.9818 17.7553C11.8974 17.7589 11.8163 17.7888 11.7499 17.841C11.6835 17.8932 11.6352 17.9649 11.6118 18.046C11.5884 18.1271 11.591 18.2135 11.6194 18.2931C11.6478 18.3726 11.7004 18.4412 11.7699 18.4892L11.7707 18.49L11.7756 18.4924L11.7804 18.4972L11.7852 18.5004L11.7901 18.5045C12.0043 18.6503 12.2315 18.7784 12.4683 18.8879C12.5162 18.9103 12.5681 18.9229 12.6209 18.9252C12.6737 18.9275 12.7264 18.9193 12.7761 18.9011C12.8257 18.8829 12.8712 18.8551 12.9101 18.8192C12.9489 18.7834 12.9803 18.7402 13.0024 18.6922C13.0251 18.6443 13.0381 18.5925 13.0407 18.5396C13.0432 18.4867 13.0353 18.4339 13.0173 18.3841C12.9993 18.3343 12.9717 18.2885 12.9359 18.2494C12.9002 18.2104 12.8571 18.1788 12.8091 18.1565ZM16.861 17.8359C16.7899 17.8392 16.7209 17.8615 16.6612 17.9003C16.4729 18.02 16.2751 18.1242 16.07 18.212C15.9814 18.2472 15.9082 18.3128 15.8635 18.3971C15.8189 18.4813 15.8057 18.5787 15.8264 18.6718C15.847 18.7649 15.9001 18.8476 15.9762 18.905C16.0523 18.9625 16.1464 18.991 16.2416 18.9854C16.2894 18.9831 16.3365 18.9728 16.3809 18.9548L16.4889 18.9064H16.4905L16.4953 18.9032L16.4969 18.9024L16.5001 18.9008H16.5034L16.5066 18.8992L16.5082 18.8976L16.513 18.8968L16.5146 18.8952L16.5171 18.8936L16.5211 18.8919L16.5235 18.8911L16.5275 18.8895L16.5291 18.8887L16.5332 18.8871L16.5348 18.8863C16.5372 18.8847 16.5372 18.8839 16.5388 18.8839L16.5404 18.8831L16.5452 18.8807H16.5469L16.5517 18.8782L16.5565 18.8758L16.5581 18.875L16.5622 18.8726L16.5638 18.8718L16.5686 18.8694L16.5694 18.8686L16.5751 18.8678L16.5807 18.8645L16.5823 18.8637L16.5855 18.8613H16.5871L16.592 18.8581L16.5984 18.8565L16.6032 18.8533L16.6097 18.85L16.6105 18.8492L16.6218 18.8444L16.6274 18.842L16.6387 18.8356L16.6451 18.8331L16.65 18.8307L16.6621 18.8243L16.6669 18.8219L16.6854 18.8122L16.6911 18.8106L16.7023 18.8041L16.708 18.8009H16.7088C16.7096 18.8001 16.7112 18.7993 16.7144 18.7993C16.716 18.7969 16.7176 18.7961 16.7192 18.7953L16.7257 18.792L16.7305 18.7896V18.7888L16.7418 18.784L16.7482 18.7808L16.7491 18.78L16.7531 18.7775L16.7595 18.7743L16.7644 18.7719H16.766L16.7708 18.7687L16.7764 18.7655L16.7772 18.7647L16.7821 18.7622L16.7869 18.7598L16.7885 18.759L16.7917 18.7566L16.7942 18.7558L16.7982 18.7534L16.7998 18.7526L16.8038 18.7502L16.8054 18.7494L16.8103 18.7477C16.8095 18.7469 16.8103 18.7469 16.8111 18.7469L16.8159 18.7445L16.8175 18.7437L16.8207 18.7413L16.8224 18.7405L16.8272 18.7381L16.8288 18.7373C16.8288 18.7357 16.8304 18.7357 16.832 18.7349L16.8344 18.7341L16.8377 18.7324L16.8401 18.7308L16.8433 18.7292L16.8457 18.7276L16.8481 18.726L16.8506 18.7236L16.8546 18.7228L16.8578 18.722L16.8594 18.7204L16.8626 18.7187L16.8659 18.7163L16.8675 18.7155L16.8707 18.7139L16.8739 18.7115L16.8763 18.7099C16.8779 18.7107 16.8787 18.7099 16.8804 18.7091L16.882 18.7075L16.8852 18.7059L16.8876 18.7042L16.89 18.7026L16.8932 18.701L16.8965 18.6986L16.8981 18.6978C16.8997 18.697 16.9029 18.697 16.9045 18.6954C16.9029 18.6946 16.9029 18.6954 16.9045 18.6954L16.9077 18.693L16.9134 18.6889L16.915 18.6881L16.9206 18.6857L16.9303 18.6801L16.9367 18.6761C16.9417 18.6725 16.9472 18.6695 16.9529 18.6672C17.0036 18.6366 17.0568 18.6052 17.1067 18.5729C17.1966 18.5154 17.26 18.4246 17.2829 18.3204C17.3059 18.2161 17.2866 18.1071 17.2292 18.0171C17.1868 17.9596 17.1312 17.9132 17.0672 17.8817C17.0031 17.8501 16.9324 17.8344 16.861 17.8359ZM18.9321 14.1158L18.9128 14.1166C18.8092 14.121 18.7113 14.1651 18.6394 14.2398C18.5675 14.3145 18.5272 14.4141 18.5269 14.5178C18.5269 14.7409 18.5068 14.9665 18.4689 15.1856C18.451 15.291 18.4756 15.3993 18.5375 15.4865C18.5994 15.5737 18.6934 15.6328 18.7988 15.6508C18.9042 15.6687 19.0125 15.6441 19.0997 15.5822C19.187 15.5203 19.2461 15.4263 19.264 15.3209V15.3169L19.2648 15.3153L19.2656 15.3137L19.2648 15.312L19.2656 15.3104V15.3088L19.2664 15.3072V15.3048L19.2672 15.3032V15.2959C19.2688 15.2951 19.2688 15.2935 19.2688 15.2927V15.2879C19.2861 15.1834 19.3001 15.0783 19.3107 14.9729L19.3099 14.9721L19.3107 14.9697L19.3115 14.9657V14.9568L19.3131 14.9544L19.3123 14.9512V14.9496L19.3131 14.9471V14.9439L19.3147 14.9431L19.3131 14.9407V14.9375C19.3147 14.9367 19.3147 14.9359 19.3147 14.9351V14.9197L19.3164 14.9173C19.3273 14.7847 19.3329 14.6509 19.3333 14.5178C19.3331 14.4114 19.2908 14.3094 19.2156 14.2341C19.1404 14.1587 19.0385 14.1162 18.9321 14.1158ZM18.5752 16.2876C18.5289 16.2619 18.478 16.2457 18.4254 16.2397C18.3728 16.2338 18.3195 16.2383 18.2686 16.2529C18.2177 16.2676 18.1703 16.2922 18.1289 16.3252C18.0875 16.3582 18.053 16.3991 18.0275 16.4455C17.9193 16.6416 17.7946 16.8281 17.6545 17.0029C17.5887 17.0866 17.5587 17.193 17.5711 17.2987C17.5835 17.4044 17.6373 17.501 17.7206 17.5672C17.804 17.6334 17.9102 17.6639 18.016 17.6521C18.1218 17.6402 18.2186 17.587 18.2852 17.504C18.3787 17.3864 18.4681 17.2631 18.5511 17.1374C18.5527 17.1318 18.5567 17.1262 18.5599 17.1213L18.5607 17.1205L18.564 17.1157L18.5672 17.1092C18.5688 17.1076 18.5704 17.106 18.5704 17.1044L18.5712 17.1052L18.5744 17.1004V17.0996C18.576 17.0981 18.5768 17.0961 18.5769 17.0939L18.5785 17.0931L18.5817 17.0883C18.5833 17.0875 18.5833 17.0851 18.5841 17.0835L18.5849 17.0827L18.5881 17.0778L18.5889 17.0762L18.5906 17.0722L18.593 17.0706L18.5946 17.0666H18.5962L18.5978 17.0617L18.5986 17.0601L18.6018 17.0569L18.6026 17.0553C18.6034 17.0537 18.6034 17.0521 18.6051 17.0512L18.6059 17.0488L18.6091 17.0464C18.6091 17.0456 18.6091 17.0448 18.6107 17.044V17.0408L18.6131 17.0392L18.6155 17.0351L18.6163 17.0335L18.6187 17.0287L18.6204 17.0271L18.622 17.0239L18.6236 17.0214C18.6236 17.0206 18.6236 17.0198 18.6252 17.019C18.6252 17.0182 18.6252 17.0174 18.6268 17.0166L18.6292 17.0126L18.63 17.0102L18.6316 17.0077L18.6332 17.0053C18.6349 17.0045 18.6349 17.0037 18.6349 17.0029C18.6365 17.0021 18.6365 17.0013 18.6365 16.9997L18.6381 16.9973L18.6405 16.9941L18.6429 16.9908V16.9884L18.6445 16.986L18.6469 16.9828L18.6494 16.9804V16.9779L18.6526 16.9739V16.9715C18.6542 16.9707 18.655 16.9699 18.655 16.9683L18.6566 16.9667L18.6582 16.9642L18.6606 16.9602L18.6622 16.9578V16.9562L18.6655 16.9522C18.6655 16.9514 18.6655 16.9506 18.6671 16.9497L18.6679 16.9473L18.6703 16.9441L18.6719 16.9409L18.6735 16.9385C18.6743 16.9377 18.6735 16.9361 18.6751 16.9352C18.6751 16.9344 18.6751 16.9336 18.6767 16.9336L18.6784 16.9296L18.68 16.928L18.6816 16.9232L18.6832 16.9224L18.6848 16.9191L18.6864 16.9175L18.688 16.9135L18.6896 16.9119L18.6912 16.9071C18.6929 16.9062 18.6912 16.9054 18.6912 16.9054L18.6945 16.9014L18.6953 16.8998L18.6985 16.8958V16.895L18.7009 16.8901L18.7025 16.8885L18.7041 16.8837L18.7082 16.8789L18.7106 16.874V16.8732L18.7138 16.8676L18.7154 16.8668L18.7356 16.8289C18.7856 16.7358 18.7968 16.6266 18.7667 16.5253C18.7367 16.4239 18.6679 16.3385 18.5752 16.2876Z" fill="#5C913B"/>
<path d="M14.5 17.7222C15.8347 17.7222 16.9167 17.3615 16.9167 16.9166C16.9167 16.4717 15.8347 16.1111 14.5 16.1111C13.1654 16.1111 12.0834 16.4717 12.0834 16.9166C12.0834 17.3615 13.1654 17.7222 14.5 17.7222Z" fill="#55ACEE"/>
<path d="M14.9028 17.7222C15.5701 17.7222 16.1111 17.3615 16.1111 16.9166C16.1111 16.4717 15.5701 16.1111 14.9028 16.1111C14.2354 16.1111 13.6945 16.4717 13.6945 16.9166C13.6945 17.3615 14.2354 17.7222 14.9028 17.7222Z" fill="#FFCC4D"/>
<path d="M15.3998 17.1374C15.3301 17.1369 15.2618 17.1183 15.2014 17.0837C15.141 17.049 15.0906 16.9994 15.055 16.9395C15.0194 16.8797 14.9998 16.8117 14.9981 16.7421C14.9964 16.6725 15.0126 16.6036 15.0453 16.5421C15.1742 16.3053 15.3095 16.0902 15.4497 15.9017C15.3343 15.9066 15.2188 15.909 15.1033 15.909C14.881 15.909 14.678 15.7277 14.678 15.5054C14.678 15.283 14.8351 15.1026 15.0582 15.1026L15.1243 15.1034C15.3627 15.1034 15.6076 15.0889 15.8267 15.0688C15.8877 15.0626 15.9494 15.0708 16.0067 15.0926C16.064 15.1144 16.1155 15.1493 16.157 15.1944C16.1683 15.1856 16.1795 15.1767 16.1916 15.1695C16.2722 15.1163 16.3471 15.0736 16.4172 15.0398C16.467 15.0013 16.5253 14.9754 16.5872 14.964L16.6162 14.9584C16.7676 14.9093 16.8739 14.9028 16.9166 14.9028C16.9797 14.9026 17.042 14.9172 17.0983 14.9456C17.1547 14.9739 17.2035 15.0152 17.241 15.0659C17.2784 15.1167 17.3033 15.1756 17.3138 15.2378C17.3242 15.3 17.3197 15.3638 17.3009 15.424C17.2348 15.6383 17.0874 15.6866 16.8288 15.7382C16.7612 15.7652 16.6969 15.7998 16.6371 15.8413C16.5642 15.8887 16.4781 15.9116 16.3913 15.9066C16.3046 15.9017 16.2216 15.8692 16.1546 15.8139C16.2095 15.8847 16.2391 15.9719 16.2388 16.0615C16.2385 16.1511 16.2083 16.238 16.153 16.3085C16.016 16.4833 15.8815 16.6912 15.7534 16.9272C15.7189 16.9909 15.6679 17.0441 15.6056 17.0811C15.5433 17.1181 15.4722 17.1376 15.3998 17.1374ZM14.2559 15.8574C14.2381 15.8575 14.2203 15.8564 14.2027 15.8542C13.915 15.8169 13.6306 15.7574 13.352 15.6762C13.3013 15.6611 13.254 15.6362 13.2129 15.6029C13.1718 15.5695 13.1377 15.5284 13.1125 15.4819C13.0873 15.4354 13.0715 15.3843 13.066 15.3317C13.0605 15.279 13.0655 15.2258 13.0806 15.1751L13.0854 15.159L13.0757 15.1775C13.0499 15.2237 13.0152 15.2644 12.9736 15.2972C12.9321 15.3299 12.8845 15.3542 12.8335 15.3686C12.7826 15.3829 12.7293 15.3871 12.6767 15.3809C12.6241 15.3746 12.5733 15.3581 12.5272 15.3322C12.2595 15.1838 12.0136 14.9992 11.7965 14.7836C11.7231 14.7076 11.6825 14.6059 11.6835 14.5003C11.6844 14.3947 11.7267 14.2937 11.8014 14.219C11.8761 14.1443 11.9771 14.1019 12.0827 14.101C12.1883 14.1001 12.2901 14.1407 12.366 14.2141C12.5247 14.3728 12.7108 14.5121 12.9203 14.6289C13.0023 14.6749 13.0657 14.7482 13.0994 14.8361C13.1331 14.9239 13.135 15.0208 13.1047 15.1098C13.147 15.0251 13.2179 14.9579 13.3048 14.9202C13.3917 14.8825 13.4892 14.8766 13.58 14.9036C13.8023 14.9697 14.0464 15.0204 14.305 15.0551C14.4065 15.068 14.4992 15.119 14.5644 15.1978C14.6297 15.2765 14.6625 15.3772 14.6562 15.4793C14.65 15.5813 14.6051 15.6772 14.5308 15.7474C14.4564 15.8177 14.3581 15.857 14.2559 15.8574ZM12.2807 13.9732C11.9375 13.9732 11.4936 13.8403 11.2246 13.5229C10.8121 13.0364 10.5697 12.412 10.6067 11.9335C10.6164 11.8055 10.4915 11.7024 10.3691 11.6701C10.299 11.6516 10.1757 11.6403 10.1177 11.7652C10.0953 11.8137 10.0545 11.8513 10.0044 11.8697C9.95421 11.8881 9.89879 11.8859 9.85029 11.8635C9.80179 11.841 9.76419 11.8002 9.74576 11.7501C9.72733 11.6999 9.72958 11.6445 9.75201 11.596C9.87768 11.3229 10.1596 11.2013 10.4706 11.2802C10.759 11.3552 11.0353 11.6145 11.0079 11.965C10.9789 12.3371 11.1899 12.8583 11.5315 13.2619C11.7111 13.4746 12.0237 13.5608 12.2363 13.5688C12.4095 13.5777 12.4973 13.5382 12.5159 13.5213C12.4708 13.4142 11.8738 13.1 11.6193 12.9663C11.4026 12.8527 11.3382 12.6964 11.322 12.586C11.2681 12.2195 11.6443 11.8482 12.0084 11.4905C12.1365 11.364 12.2581 11.2448 12.3242 11.157C12.3991 11.0579 12.387 10.9918 12.3725 10.9508C12.3169 10.8001 12.076 10.6511 11.786 10.5867C11.5178 10.527 11.3365 10.3973 11.2479 10.2008C11.1311 9.94221 11.1932 9.60388 11.4364 9.16566C11.4493 9.14254 11.4666 9.12218 11.4873 9.10575C11.508 9.08931 11.5318 9.07712 11.5572 9.06986C11.5826 9.06261 11.6092 9.06043 11.6355 9.06346C11.6618 9.06649 11.6872 9.07466 11.7103 9.08752C11.7334 9.10037 11.7538 9.11765 11.7702 9.13837C11.7867 9.15909 11.7989 9.18285 11.8061 9.20828C11.8134 9.23371 11.8155 9.26032 11.8125 9.2866C11.8095 9.31287 11.8013 9.33829 11.7885 9.36141C11.5589 9.77385 11.5814 9.96074 11.6153 10.0357C11.6491 10.1098 11.7353 10.1621 11.873 10.1927C12.2138 10.2685 12.6238 10.4707 12.7495 10.8106C12.8212 11.0047 12.7849 11.2142 12.6464 11.3987C12.5626 11.5106 12.4305 11.6403 12.2911 11.7781C12.0833 11.9827 11.6958 12.3637 11.7208 12.528C11.7256 12.5619 11.7699 12.5917 11.807 12.6102C12.412 12.9276 12.8139 13.1572 12.8961 13.4383C12.9105 13.4863 12.9149 13.5367 12.9091 13.5864C12.9032 13.6361 12.8873 13.6842 12.8623 13.7275C12.7841 13.8637 12.6214 13.9474 12.391 13.9684C12.3564 13.9716 12.3185 13.9732 12.2807 13.9732Z" fill="#5C913B"/>
<path d="M15.7083 15.3056C15.9308 15.3056 16.1111 14.9449 16.1111 14.5C16.1111 14.0551 15.9308 13.6945 15.7083 13.6945C15.4859 13.6945 15.3055 14.0551 15.3055 14.5C15.3055 14.9449 15.4859 15.3056 15.7083 15.3056Z" fill="#FFCC4D"/>
<path d="M13.9296 13.8459C13.9296 14.0779 13.6517 14.2656 13.3085 14.2656C12.9662 14.2656 12.6874 14.0779 12.6874 13.8459C12.6874 13.6139 12.9654 13.4262 13.3085 13.4262C13.6509 13.4262 13.9296 13.6139 13.9296 13.8459ZM12.9734 10.1186C13.0137 10.2893 12.7906 10.4891 12.4748 10.564C12.159 10.6389 11.8706 10.5608 11.8295 10.39C11.7893 10.2184 12.0124 10.0187 12.3274 9.94375C12.6439 9.86964 12.9331 9.94697 12.9734 10.1186Z" fill="#FFCC4D"/>
<path d="M18.1516 14.4637C18.2241 14.5201 18.3473 13.8765 18.3288 13.6759C18.3288 13.6622 18.3054 13.2361 18.3956 12.9316C18.4512 12.8284 18.4544 12.0591 18.3691 11.8569C18.4367 11.8513 18.5181 11.8296 18.5277 11.7474C18.2152 11.8626 18.1419 11.0893 17.8414 10.6446C17.5498 10.1991 17.1881 9.93973 16.8103 9.66906C16.8418 9.58999 16.8859 9.51654 16.9408 9.45156C16.4776 9.68356 15.7558 8.84337 14.6893 8.9062C14.45 8.92956 14.3364 8.94406 14.2752 9.09067C14.0762 9.10678 13.8741 9.15189 13.8741 9.4137C13.8741 9.47653 13.9312 9.59092 14.0585 9.59173C14.2325 9.64248 14.3743 9.603 14.4927 9.84628L14.5241 10.0976C14.5241 10.0976 14.3687 9.89864 14.2833 9.86723L14.3356 9.76009C14.2551 9.71337 14.1125 9.75123 14.1125 9.75123C14.1125 9.75123 13.8024 9.60623 13.5534 9.64489L13.5051 9.4435C13.4616 9.56756 13.3641 9.56112 13.3504 9.67792C13.3231 9.59414 13.2868 9.49023 13.261 9.40645C13.1732 9.52567 13.199 9.65456 13.1676 9.77862C13.1337 9.80762 13.0645 9.80842 13.0467 9.72867C13.0379 9.63039 13.0258 9.62153 13.0258 9.50473C12.963 9.61509 12.8872 9.66906 12.8623 9.85837L12.7954 9.64892C12.7978 9.89623 12.5852 10.0436 12.3838 10.2184C12.3266 10.3232 12.3926 10.324 12.3975 10.3779L12.5038 10.4311L12.6947 10.4174C12.7261 10.4569 12.7004 10.4601 12.7833 10.4851C13.0057 10.5471 13.2828 10.2805 13.5003 10.7002C13.4004 10.7839 13.2997 10.9797 13.3319 11.0168C13.3722 11.0168 13.2514 11.0731 13.4141 11.0216C13.2449 11.1859 13.1305 11.4026 13.1305 11.4155C13.1112 11.4622 13.1982 11.4091 13.1805 11.4936L13.2207 11.4888C12.8349 11.9061 13.2079 12.3548 13.1668 12.5956C13.2312 12.6996 13.2393 12.5932 13.3198 12.5828C13.3875 12.8792 13.5824 13.0588 13.7017 13.2933L13.4503 13.2957C13.456 13.4068 13.5567 13.5124 13.6364 13.6098L13.4681 13.663C13.3598 13.717 13.2634 13.792 13.1845 13.8837C13.1289 14.0191 13.4527 14.0513 13.609 14.0754L13.6034 14.239C13.8475 14.2623 14.1294 14.1898 14.1294 14.1761L14.1906 14.1286L14.3284 14.2043C14.3743 14.2043 14.446 14.0207 14.413 13.8797C14.5016 13.9852 14.5854 14.1552 14.674 14.2615L14.7569 14.2503C14.8327 14.3703 14.9366 14.4895 15.0123 14.6095L15.0969 14.6418C15.146 14.6248 15.1879 14.6192 15.2145 14.5225L15.2532 14.5902L15.3869 14.4984L15.4803 14.4798L15.5504 14.5942C15.5915 14.5789 15.6318 14.4895 15.6342 14.3944C15.6761 14.4774 15.6874 14.471 15.718 14.4927L15.78 14.3622L16.1143 14.6748L16.3672 14.6893C16.4575 14.7505 16.7048 14.7892 16.7467 14.6901C16.9497 14.7771 17.1889 14.6788 17.1768 14.5821C17.3637 14.6563 17.6513 14.6063 17.6513 14.5942C17.6859 14.5902 17.7746 14.5032 17.6908 14.4379C17.0729 14.0078 16.157 13.2957 15.8034 13.1241C15.8034 12.9968 15.7075 12.5384 15.6044 12.4128L15.6882 12.2726C15.929 12.4974 16.016 12.4756 16.1441 12.5111C16.2811 12.6198 16.3286 12.785 16.4655 12.9356L16.588 12.9581C16.4881 12.696 16.3363 12.4568 16.1417 12.2549C16.2738 12.3209 16.4929 12.4974 16.6395 12.6254C16.7362 12.7874 16.7644 12.9163 16.853 13.1193C16.9174 13.1603 16.9835 13.311 16.9746 13.1861C16.9593 12.9517 16.7942 12.5803 16.7942 12.5538C17.0568 12.7616 17.0536 13.0854 17.1333 13.2828C17.2002 13.3827 17.234 13.5164 17.263 13.485L17.1857 12.876L17.1406 12.6528C17.3347 12.7648 17.404 13.1918 17.495 13.7041C17.495 13.7854 17.5281 13.8749 17.5232 13.9272C17.5651 13.9788 17.6126 14.1214 17.6118 14.0368C17.6118 14.0368 17.6118 13.2038 17.5546 13.0129C17.5401 12.9106 17.5788 12.7447 17.5788 12.7447C17.6497 13.0903 17.7254 13.4648 17.7971 13.8096V14.0634L17.9034 14.1705C17.9236 13.9611 17.9477 13.7532 17.9687 13.5454L17.8889 12.8003V12.5876C17.8873 12.5127 17.9574 12.5264 18.0017 12.6118C18.0122 12.7946 18.0122 12.9372 18.0194 13.1193C18.0509 13.3271 18.0726 13.4793 18.0879 13.7444C18.0968 13.9586 18.1064 14.4726 18.1516 14.4637Z" fill="#C1694F"/>
</g>
<defs>
<clipPath id="clip0_107_904">
<rect width="29" height="29" fill="white"/>
</clipPath>
</defs>
</svg>
