<svg width="28" height="28" viewBox="0 0 28 28" fill="none" xmlns="http://www.w3.org/2000/svg">
<path d="M28 21C28 21.8251 27.6722 22.6165 27.0888 23.1999C26.5053 23.7834 25.714 24.1111 24.8889 24.1111H3.11111C2.28599 24.1111 1.49467 23.7834 0.911223 23.1999C0.327777 22.6165 0 21.8251 0 21V7.00003C0 6.17491 0.327777 5.38359 0.911223 4.80014C1.49467 4.21669 2.28599 3.88892 3.11111 3.88892H24.8889C25.714 3.88892 26.5053 4.21669 27.0888 4.80014C27.6722 5.38359 28 6.17491 28 7.00003V21Z" fill="#E30917"/>
<path d="M12.4445 18.6667C11.2068 18.6667 10.0198 18.175 9.14465 17.2998C8.26948 16.4247 7.77781 15.2377 7.77781 14C7.77781 12.7623 8.26948 11.5753 9.14465 10.7002C10.0198 9.825 11.2068 9.33334 12.4445 9.33334C13.4634 9.33334 14.4045 9.66389 15.1721 10.2184C14.6369 9.60963 13.978 9.12192 13.2395 8.78783C12.5009 8.45375 11.6996 8.28096 10.8889 8.28101C9.37215 8.28101 7.9175 8.88354 6.84498 9.95606C5.77246 11.0286 5.16992 12.4832 5.16992 14C5.16982 14.7511 5.31767 15.4949 5.60503 16.1888C5.89239 16.8828 6.31363 17.5133 6.8447 18.0445C7.37577 18.5756 8.00626 18.9969 8.70018 19.2844C9.39409 19.5718 10.1378 19.7198 10.8889 19.7198C12.5961 19.7198 14.1245 18.9677 15.1721 17.7816C14.3793 18.3573 13.4244 18.6672 12.4445 18.6667ZM15.4879 14.1789L17.3857 14.616L17.5568 16.555L18.5586 14.8859L20.4564 15.3222L19.1777 13.8538L20.1787 12.1839L18.3875 12.9461L17.1088 11.4769L17.2799 13.4167L15.4879 14.1789Z" fill="#EEEEEE"/>
</svg>
