<svg width="28" height="28" viewBox="0 0 28 28" fill="none" xmlns="http://www.w3.org/2000/svg">
<g clip-path="url(#clip0_107_827)">
<path d="M27.5683 5.44447C27.0293 4.51814 26.0377 3.88892 24.8889 3.88892H14V5.44447H27.5683ZM0 19.4445H28V21H0V19.4445ZM14 13.2222H28V14.7778H14V13.2222ZM14 10.1111H28V11.6667H14V10.1111ZM0 16.3334H28V17.8889H0V16.3334ZM3.11111 24.1111H24.8889C26.0377 24.1111 27.0293 23.4819 27.5683 22.5556H0.431667C0.970667 23.4819 1.96233 24.1111 3.11111 24.1111ZM14 7.00003H28V8.55558H14V7.00003Z" fill="#B22334"/>
<path d="M0.0528889 21.5281C0.0661111 21.6005 0.0808889 21.6728 0.0987778 21.7436C0.119 21.8221 0.143889 21.8976 0.170333 21.9738C0.239556 22.1752 0.323556 22.3697 0.429333 22.5517L0.431667 22.5556H27.5683L27.5699 22.5525C27.6743 22.3691 27.7608 22.1761 27.8281 21.9761C27.8793 21.8302 27.9189 21.6804 27.9463 21.5281C27.9782 21.357 28 21.1812 28 21H0C0 21.1812 0.0217778 21.3562 0.0528889 21.5281ZM0 17.8889H28V19.4445H0V17.8889ZM0 14.7778V16.3333H28V14.7778H14H0ZM14 11.6667H28V13.2222H14V11.6667ZM14 8.55557H28V10.1111H14V8.55557ZM0.0995556 6.25646C0.119 6.17712 0.146222 6.10168 0.171111 6.02546C0.144101 6.10144 0.120229 6.17851 0.0995556 6.25646ZM14 7.00001H28C28 6.81879 27.9782 6.64301 27.9463 6.47112C27.9191 6.31876 27.8793 6.16892 27.8273 6.02312C27.7599 5.82231 27.6732 5.62852 27.5683 5.44446H14V7.00001Z" fill="#EEEEEE"/>
<path d="M14 3.88892H3.11111C2.28599 3.88892 1.49467 4.21669 0.911223 4.80014C0.327777 5.38359 0 6.17491 0 7.00003L0 14.7778H14V3.88892Z" fill="#3C3B6E"/>
<path d="M1.55627 6.00912L2.03694 6.35835L1.85339 6.92224L2.33327 6.57379L2.81394 6.92224L2.63039 6.35835L3.11105 6.00912H2.51683L2.33327 5.44446L2.1505 6.00912H1.55627ZM3.11183 7.56468L3.5925 7.9139L3.40894 8.47779L3.88883 8.12935L4.3695 8.47779L4.18594 7.9139L4.66661 7.56468H4.07239L3.88883 7.00001L3.70605 7.56468H3.11183ZM6.22294 7.56468L6.70361 7.9139L6.52005 8.47779L6.99994 8.12935L7.48061 8.47779L7.29705 7.9139L7.77772 7.56468H7.1835L6.99994 7.00001L6.81716 7.56468H6.22294ZM9.33405 7.56468L9.81472 7.9139L9.63116 8.47779L10.1111 8.12935L10.5917 8.47779L10.4082 7.9139L10.8888 7.56468H10.2946L10.1111 7.00001L9.92827 7.56468H9.33405ZM3.11183 10.6758L3.5925 11.025L3.40894 11.5889L3.88883 11.2405L4.3695 11.5889L4.18594 11.025L4.66661 10.6758H4.07239L3.88883 10.1111L3.70605 10.6758H3.11183ZM6.22294 10.6758L6.70361 11.025L6.52005 11.5889L6.99994 11.2405L7.48061 11.5889L7.29705 11.025L7.77772 10.6758H7.1835L6.99994 10.1111L6.81716 10.6758H6.22294ZM9.33405 10.6758L9.81472 11.025L9.63116 11.5889L10.1111 11.2405L10.5917 11.5889L10.4082 11.025L10.8888 10.6758H10.2946L10.1111 10.1111L9.92827 10.6758H9.33405ZM4.66739 6.00912L5.14805 6.35835L4.9645 6.92224L5.44439 6.57379L5.92505 6.92224L5.7415 6.35835L6.22216 6.00912H5.62794L5.44439 5.44446L5.26161 6.00912H4.66739ZM7.7785 6.00912L8.25916 6.35835L8.07561 6.92224L8.5555 6.57379L9.03616 6.92224L8.85261 6.35835L9.33327 6.00912H8.73905L8.5555 5.44446L8.37272 6.00912H7.7785ZM10.8896 6.00912L11.3703 6.35835L11.1867 6.92224L11.6666 6.57379L12.1473 6.92224L11.9637 6.35835L12.4444 6.00912H11.8502L11.6666 5.44446L11.4838 6.00912H10.8896ZM1.55627 9.12024L2.03694 9.46946L1.85339 10.0333L2.33327 9.6849L2.81394 10.0333L2.63039 9.46946L3.11105 9.12024H2.51683L2.33327 8.55557L2.1505 9.12024H1.55627ZM4.9645 10.0333L5.44439 9.6849L5.92505 10.0333L5.7415 9.46946L6.22216 9.12024H5.62794L5.44439 8.55557L5.26161 9.12024H4.66739L5.14805 9.46946L4.9645 10.0333ZM7.7785 9.12024L8.25916 9.46946L8.07561 10.0333L8.5555 9.6849L9.03616 10.0333L8.85261 9.46946L9.33327 9.12024H8.73905L8.5555 8.55557L8.37272 9.12024H7.7785ZM10.8896 9.12024L11.3703 9.46946L11.1867 10.0333L11.6666 9.6849L12.1473 10.0333L11.9637 9.46946L12.4444 9.12024H11.8502L11.6666 8.55557L11.4838 9.12024H10.8896ZM1.55627 12.2313L2.03694 12.5806L1.85339 13.1445L2.33327 12.796L2.81394 13.1445L2.63039 12.5806L3.11105 12.2313H2.51683L2.33327 11.6667L2.1505 12.2313H1.55627ZM4.9645 13.1445L5.44439 12.796L5.92505 13.1445L5.7415 12.5806L6.22216 12.2313H5.62794L5.44439 11.6667L5.26161 12.2313H4.66739L5.14805 12.5806L4.9645 13.1445ZM7.7785 12.2313L8.25916 12.5806L8.07561 13.1445L8.5555 12.796L9.03616 13.1445L8.85261 12.5806L9.33327 12.2313H8.73905L8.5555 11.6667L8.37272 12.2313H7.7785ZM10.8896 12.2313L11.3703 12.5806L11.1867 13.1445L11.6666 12.796L12.1473 13.1445L11.9637 12.5806L12.4444 12.2313H11.8502L11.6666 11.6667L11.4838 12.2313H10.8896Z" fill="white"/>
</g>
<defs>
<clipPath id="clip0_107_827">
<rect width="28" height="28" fill="white"/>
</clipPath>
</defs>
</svg>
