<svg width="28" height="28" viewBox="0 0 28 28" fill="none" xmlns="http://www.w3.org/2000/svg">
<g clip-path="url(#clip0_107_881)">
<path d="M24.8889 3.88892H7V10.8889H28V7.00003C28 6.17491 27.6722 5.38359 27.0888 4.80014C26.5053 4.21669 25.714 3.88892 24.8889 3.88892Z" fill="#068241"/>
<path d="M7 10.8889H28V17.1111H7V10.8889Z" fill="#EEEEEE"/>
<path d="M7 24.1111H24.8889C25.714 24.1111 26.5053 23.7833 27.0888 23.1999C27.6722 22.6164 28 21.8251 28 21V17.1111H7V24.1111Z" fill="#141414"/>
<path d="M3.11111 3.88892C2.28599 3.88892 1.49467 4.21669 0.911223 4.80014C0.327777 5.38359 0 6.17491 0 7.00003L0 21C0 21.8251 0.327777 22.6165 0.911223 23.1999C1.49467 23.7834 2.28599 24.1111 3.11111 24.1111H7V3.88892H3.11111Z" fill="#EC2028"/>
</g>
<defs>
<clipPath id="clip0_107_881">
<rect width="28" height="28" fill="white"/>
</clipPath>
</defs>
</svg>
